<?xml version="1.0" encoding="utf-8"?>
<!-- Generator: Adobe Illustrator 15.1.0, SVG Export Plug-In  -->
<!DOCTYPE svg PUBLIC "-//W3C//DTD SVG 1.1//EN" "http://www.w3.org/Graphics/SVG/1.1/DTD/svg11.dtd" [
	<!ENTITY ns_flows "http://ns.adobe.com/Flows/1.0/">
]>
<svg version="1.1"
	 xmlns="http://www.w3.org/2000/svg" xmlns:xlink="http://www.w3.org/1999/xlink" xmlns:a="http://ns.adobe.com/AdobeSVGViewerExtensions/3.0/"
	 x="0px" y="0px" width="957px" height="215px" viewBox="-0.051 0.279 957 215"
	 overflow="visible" enable-background="new -0.051 0.279 957 215" xml:space="preserve">
<defs>
</defs>
<g>
	<path fill="#00202A" d="M634.488,78.473c-21.195-7.918-30.453-12.477-30.453-22.795c0-8.396,7.795-15.596,23.875-15.596
		c16.079,0,27.774,4.561,34.352,7.68l8.283-29.512c-9.745-4.318-23.388-8.158-41.904-8.158c-38.736,0-62.125,21.113-62.125,48.707
		c0,3.262,0.355,6.35,1.016,9.285h12.963h21.369l-3.957,21l-2.049,10.863c4.783,2.455,10.048,4.648,15.73,6.598
		c19.733,6.959,27.529,12.717,27.529,22.793c0,10.557-9.015,17.516-26.068,17.516c-4.033,0-8.032-0.33-11.922-0.898l-2.463,13.547
		l-2.974,16.355c4.913,0.625,10.03,0.986,15.165,0.986c45.072,0,66.268-23.031,66.268-50.145
		C677.123,103.906,663.479,89.029,634.488,78.473z"/>
</g>
<path fill="#00202A" d="M929.941,170.445l-5.635-28.711c-7.35,2.895-19.843,5.307-31.113,5.307
	c-33.316,0-52.916-20.506-52.916-53.078c0-36.191,23.029-53.803,52.672-53.803c13.229,0,23.764,2.895,31.357,6.031l7.596-29.193
	c-6.615-3.379-21.313-7.238-40.668-7.238c-39.043,0-72.104,18.848-84.702,53.555l32.391,102.875
	c12.954,7.188,29.187,11.252,48.638,11.252C907.647,177.441,923.082,173.822,929.941,170.445z"/>
<path fill="#00202A" d="M770.37,12.414h-48.996l-28.645,92.299c2.495,6.875,3.755,14.324,3.755,22.305
	c0,18.719-7.348,35.643-20.758,48.012h33.887l11.761-41.738h47.28l12.738,41.738h40.179L770.37,12.414z M726.762,105.785
	l9.801-34.502c2.694-9.41,5.145-21.715,7.595-31.365h0.49c2.449,9.65,5.388,21.715,8.328,31.365l10.289,34.502H726.762z"/>
<path fill="#00202A" d="M20.391,108.883c0,42.65,29.195,68.529,72.503,68.529c19.215,0,33.802-2.963,42.636-6.662
	c-0.426-0.438-0.848-0.877-1.265-1.324c-6.17-6.633-11.109-14.35-14.728-22.979c-5.504,0.971-11.448,1.492-17.396,1.492
	c-28.953,0-43.552-17.252-43.552-42.891c0-22.523,8.759-40.975,22.627-51.998c9.976-8.146,23.357-12.459,37.468-12.459
	c4.831,0,9.265,0.338,13.201,0.877c4.625-7.311,10.002-13.939,16.045-19.664l0.03-0.029l0.029-0.027
	c2.089-1.959,4.259-3.814,6.497-5.576c-6.271-2.566-17.866-5.291-32.396-5.291c-23.113,0-43.308,5.51-60.338,17.252
	C36.935,44.426,20.391,72.699,20.391,108.883z"/>
<path fill="#00202A" d="M256.206,154.408c0.083-0.08,0.164-0.164,0.247-0.246L277.849,43.58
	c-9.989-19.932-29.769-32.699-58.624-32.699c-23.6,0-44.523,8.625-59.852,23.002c-19.221,18.211-30.169,47.205-30.169,76.438
	c0,37.619,23.844,67.332,66.421,67.332C220.197,177.652,240.879,169.025,256.206,154.408z M166.428,109.121
	c0-19.408,7.299-44.568,20.438-57.268c7.542-7.668,17.274-12.221,28.223-12.221c25.791,0,33.09,19.41,33.09,39.537
	c0,18.689-7.057,45.287-19.951,57.988c-7.543,7.188-17.273,11.74-27.493,11.74C176.891,148.898,166.428,131.885,166.428,109.121z"/>
<path fill="#00202A" d="M393.089,154.648c1.806-1.418,3.556-2.924,5.245-4.512l20.18-104.643c-3.502-6.18-7.988-11.357-13.26-15.686
	c-13.868-11.74-34.305-17.49-59.853-17.49c-15.813,0-31.384,1.197-45.254,3.594L269.736,173.1
	c8.028,1.438,25.059,2.875,44.767,2.875C350.025,175.975,374.111,169.504,393.089,154.648z M330.561,41.072
	c3.649-0.721,8.76-0.959,14.841-0.959c28.954,0,43.309,15.096,43.309,40.496c0,19.406-5.84,36.18-17.031,48.641
	c-10.706,12.221-27.494,18.928-46.471,18.928c-6.083,0-11.19-0.238-15.328-0.957L330.561,41.072z"/>
<linearGradient id="SVGID_1_" gradientUnits="userSpaceOnUse" x1="489.9873" y1="144.1455" x2="583.9668" y2="144.1455">
	<stop  offset="0" style="stop-color:#047900"/>
	<stop  offset="1" style="stop-color:#02B200"/>
</linearGradient>
<path fill="url(#SVGID_1_)" d="M583.229,84.139h-32.682l-57.236,73.117l-3.324,17.725h51.146l-5.539,29.172h24.925l5.54-29.172
	h14.217l3.691-20.311h-14.031L583.229,84.139z M550.548,128.637l-5.538,26.033h-25.112l0.186-0.369l19.757-25.48
	c5.723-7.938,10.339-15.51,15.693-23.635h0.739C554.426,112.758,552.21,121.068,550.548,128.637z"/>
<polygon fill="#00202A" points="477.616,154.312 478.336,150.48 480.736,147.412 482.201,145.545 451.114,145.545 458.656,106.484 
	517.048,106.484 522.645,77.492 464.252,77.492 471.064,42.988 532.863,42.988 538.701,13.516 441.625,13.516 410.482,175.016 
	473.732,175.016 474.292,172.037 "/>
<rect id="_x3C_Slice_x3E__2_" fill="none" width="957" height="215"/>
</svg>
